<svg xmlns="http://www.w3.org/2000/svg" width="76.2" height="76" viewBox="0 0 76.2 76"><style>.st0{fill:#fff}</style><path class="st0" d="M28.6 1.1C21.8 2.8 15.8 6.4 11 11.2c2.8 1.4 6 2.5 9.4 3.4 2.1-5.8 4.9-10.4 8.2-13.5zm-5.1 14.1c4.1.8 8.6 1.3 13.1 1.4V0c-5.3.9-10 6.8-13.1 15.2zM39.6 0v16.7c4.5-.1 9-.6 13.1-1.4C49.6 6.8 44.9.9 39.6 0zm25.6 11.2C60.4 6.4 54.4 2.8 47.6 1.1c3.3 3.1 6.1 7.7 8.1 13.5 3.5-.9 6.7-2.1 9.5-3.4zm-45.6 6.2c-3.9-1-7.5-2.3-10.6-4C3.7 19.7.4 27.7.1 36.4h16.8c0-6.9 1-13.4 2.7-19zm.2 19.1h16.8V19.7c-4.9-.1-9.6-.6-14-1.5-1.7 5.3-2.7 11.6-2.8 18.3zm33.8-18.4c-4.4.9-9.2 1.5-14 1.5v16.8h16.8c-.1-6.6-1.1-12.9-2.8-18.3zm5.8 18.4h16.8c-.3-8.8-3.6-16.8-8.9-23-3.1 1.6-6.7 2.9-10.6 4 1.6 5.5 2.6 12 2.7 19zm-42.6 3H0c.3 8.8 3.6 16.8 8.9 23 3.1-1.6 6.7-2.9 10.6-4-1.6-5.6-2.6-12-2.7-19zm5.8 18.4c4.4-.9 9.2-1.5 14-1.5V39.5H19.8c.1 6.7 1.1 12.9 2.8 18.4zm33.8-18.4H39.6v16.8c4.9.1 9.6.6 14 1.5 1.7-5.4 2.7-11.6 2.8-18.3zm.2 19.1c3.9 1 7.5 2.3 10.6 4 5.3-6.3 8.6-14.3 8.9-23H59.4c-.1 6.9-1.1 13.3-2.8 19zM11 64.8c4.8 4.8 10.8 8.4 17.5 10.1-3.3-3.1-6.1-7.7-8.1-13.5-3.4.9-6.6 2-9.4 3.4zM36.6 76V59.3c-4.5.1-9 .6-13.1 1.4C26.6 69.2 31.3 75 36.6 76zm3-16.7V76c5.3-.9 10-6.8 13.1-15.2-4.1-.9-8.6-1.4-13.1-1.5zm8 15.6c6.7-1.7 12.8-5.3 17.5-10.1-2.8-1.4-6-2.5-9.4-3.4-2 5.8-4.8 10.4-8.1 13.5z"/></svg>