<svg xmlns="http://www.w3.org/2000/svg" width="30" height="30" viewBox="0 0 30 30"><defs><style>.a{fill:#be962e}</style></defs><title>navIcon_02</title><path class="a" d="M0 26h30a29.69 29.69 0 0 0-7.72-3.15v-6.22l1.79-2.14a3.28 3.28 0 0 0 2.29-6.11 2.91 2.91 0 0 0 0-.33 2.47 2.47 0 0 0-2.48-2.48 2.58 2.58 0 0 0-.81.13A3 3 0 0 0 20.42 4a3 3 0 0 0-2.89 2.31A2.41 2.41 0 0 0 16.31 6a2.44 2.44 0 0 0-2.44 2.44 2.4 2.4 0 0 0 .77 1.78 3.27 3.27 0 0 0 4.5 4.71l1.44 1.71v5.83l-.44-.08-1.47-.22a30.27 30.27 0 0 0-3.67-.23 29.66 29.66 0 0 0-4.61.36l-.82.14c-.36.06-.71.13-1.06.22V18.1l1.43-1.71a2.65 2.65 0 0 0 .64.08 2.63 2.63 0 0 0 1.19-5 1.9 1.9 0 0 0 0-.27 2 2 0 0 0-2.61-1.84 2.37 2.37 0 0 0-4.45.49 2 2 0 0 0-2.93 1.69A1.92 1.92 0 0 0 2.39 13 2.61 2.61 0 0 0 6 16.72l1.15 1.38V23A30 30 0 0 0 0 26zm20.46-11.5a2.59 2.59 0 0 0 .38 0 2.43 2.43 0 0 0 1.8-.79 1.67 1.67 0 0 0 .23.19l-1.45 1.73zm-13.4 1.9a1.66 1.66 0 0 0 .31 0 1.93 1.93 0 0 0 1.44-.64l.19.16-1.17 1.39z"/></svg>