<svg xmlns="http://www.w3.org/2000/svg" width="30" height="30" viewBox="0 0 30 30"><defs><style>.a{fill:#c09613}</style></defs><title>navIcon_04</title><path class="a" d="M29.94 24.17a1.71 1.71 0 0 1-.5 0H.52a1.41 1.41 0 0 1-.46 0 .66.66 0 0 0 .5.87h28.87a.71.71 0 0 0 .57-.83zm0-.55l-3.37-4a1.64 1.64 0 0 0-1.09-.32H4.67a1.64 1.64 0 0 0-1.09.32l-3.58 4c-.18.18.09.32.5.32h28.93c.46 0 .73-.14.57-.32zm-11.54-.23a.34.34 0 0 1-.23 0H11.6a.34.34 0 0 1-.23 0l.59-.87a.36.36 0 0 1 .32-.09h5.43a.36.36 0 0 1 .32.09l.55.87a.46.46 0 0 0-.18 0zm7.07-18.47H4.53a.82.82 0 0 0-.82.82V18a.82.82 0 0 0 .82.82h20.94a.82.82 0 0 0 .82-.82V5.74a.82.82 0 0 0-.82-.82zM15 5.29a.41.41 0 1 1-.41.41.36.36 0 0 1 .41-.41zM25 17.6H4.94V6.52h20.12V17.6z"/></svg>