<svg xmlns="http://www.w3.org/2000/svg" width="30" height="30" viewBox="0 0 30 30"><defs><style>.a{fill:#c09613}</style></defs><title>navIcon_01</title><path class="a" d="M0 .89v25.56h14.28l-1.4-2.06H2.11V7.08H28v10.78A4 4 0 0 1 30.06 20V.89H0zm3.37 4.33A1.13 1.13 0 1 1 4.5 4.09a1.08 1.08 0 0 1-1.13 1.13zm4.06 0a1.13 1.13 0 1 1 1.13-1.13 1.17 1.17 0 0 1-1.13 1.13zm4 0a1.13 1.13 0 1 1 1.13-1.13 1.12 1.12 0 0 1-1.14 1.13zm15.7 14.51l-5.39-2.33v-5a1.6 1.6 0 0 0-3.19 0v10.12l-.4.4-1.6-2.26a1.58 1.58 0 0 0-2.6 1.8l4.33 6.26v.4h8.78l.6-1.2a5.38 5.38 0 0 0 .6-2.46v-3.87a1.89 1.89 0 0 0-1.13-1.87z"/></svg>