<svg xmlns="http://www.w3.org/2000/svg" width="30" height="30" viewBox="0 0 30 30"><defs><style>.a{fill:#be962e}</style></defs><title>navIcon_06</title><path class="a" d="M24.55 0H5.41a1.59 1.59 0 0 0-1.54 1.58v18.24a1.58 1.58 0 0 0 1.54 1.58h3.81V30l9.64-8.59h5.68a1.59 1.59 0 0 0 1.59-1.58V1.59A1.59 1.59 0 0 0 24.55 0zm-8.19 19.08a2.09 2.09 0 0 1-1.44.55 2.13 2.13 0 0 1-1.45-.54 1.9 1.9 0 0 1-.62-1.51 2 2 0 0 1 2-2 2 2 0 0 1 1.47.59 2 2 0 0 1 .68 1.4 1.88 1.88 0 0 1-.64 1.51zm1.76-6.94a4.87 4.87 0 0 0-1.42 1.21 2.66 2.66 0 0 0-.25 1.41h-3.14v-.45a5.64 5.64 0 0 1 .34-2.59 7.43 7.43 0 0 1 1.83-1.67A4.11 4.11 0 0 0 16.57 9a2.29 2.29 0 0 0 .3-1.22 1.81 1.81 0 0 0-.57-1.41 2 2 0 0 0-1.38-.52c-1.31 0-2.09.84-2.36 2.53H9.18a6.37 6.37 0 0 1 2-4.13 5.9 5.9 0 0 1 4-1.41 6 6 0 0 1 4 1.38 4.4 4.4 0 0 1 1.63 3.5 5.18 5.18 0 0 1-2.69 4.42z"/></svg>